# xmcd
#
# Track frame offsets: 
#        150
#        18114
#        37685
#        57435
#        86261
#        106605
#        120982
#        143553
#
# Disc length: 2304 seconds
#
# Revision: 0
# Processed by: cddbd v1.5.2PL0 Copyright (c) Steve Scherf et al.
# Submitted via: ExactAudioCopy v0.95b3
#
DISCID=4b08fe08
DTITLE=Mother Earth - Satisfied
DYEAR=1970
DGENRE=Blues
TTITLE0=Satisfied
TTITLE1=Groovy Way
TTITLE2=Get Out Of Here
TTITLE3=Ruler Of My Heart
TTITLE4=Andy's Song
TTITLE5=Take Me In Your Arms, Rock Me A Little While
TTITLE6=You Won't Be Passing Here No More
TTITLE7=This Feeling
EXTD=
EXTT0=
EXTT1=
EXTT2=
EXTT3=
EXTT4=
EXTT5=
EXTT6=
EXTT7=
PLAYORDER=
